<?xml version="1.0" encoding="UTF-8"?>
<svg id="Calque_1" xmlns="http://www.w3.org/2000/svg" version="1.1" viewBox="0 0 141.5 156.69">
  <!-- Generator: Adobe Illustrator 29.8.3, SVG Export Plug-In . SVG Version: 2.1.1 Build 3)  -->
  <defs>
    <style>
      .st0 {
        fill: #e69047;
      }

      .st1 {
        fill: #ceaf7d;
      }

      .st2 {
        fill: #df4e44;
      }

      .st3, .st4 {
        fill: #fff;
      }

      .st5 {
        fill: #f0a75a;
      }

      .st6 {
        fill: #ddbf8e;
      }

      .st7 {
        fill: #e9a257;
      }

      .st8 {
        fill: #5f76b8;
      }

      .st4 {
        stroke: #513523;
        stroke-miterlimit: 10;
        stroke-width: .16px;
      }

      .st9 {
        fill: #513523;
      }

      .st10 {
        fill: #d18037;
      }
    </style>
  </defs>
  <g>
    <path class="st8" d="M70.75,154.9C32.73,154.9,1.79,123.96,1.79,85.94S32.73,16.98,70.75,16.98s68.96,30.93,68.96,68.96-30.94,68.96-68.96,68.96Z"/>
    <path class="st9" d="M70.75,18.78c37.03,0,67.16,30.13,67.16,67.17s-30.13,67.17-67.16,67.17S3.59,122.98,3.59,85.94,33.72,18.78,70.75,18.78M70.75,15.19C31.68,15.19,0,46.87,0,85.94s31.68,70.75,70.75,70.75,70.75-31.68,70.75-70.75S109.83,15.19,70.75,15.19h0Z"/>
  </g>
  <polygon class="st9" points="9.73 120.9 121.97 113.53 114.97 137.24 92.01 151.42 75.21 153.27 64.49 153.53 38.44 148.17 9.73 120.9"/>
  <g>
    <path class="st9" d="M22.31,127.88l-15.29-15.79-2.75-7.61-.23-1.04.45-.42c.11-.1,11.12-10.11,28.74-18.17.29-2.29,2.01-5.41,3.34-7.65.1-.17.17-.29.21-.36.18-.47.88-1.96,1.59-2.92.44-1.55,2.11-3.56,4.5-4.07.25-1.71-.34-4.21-.7-4.81-.11-.04-.34-.11-.53-.17-1.08-.32-2.88-.86-5.14-2.81l-.08-.06-.06-.08c-2.34-2.92-4.67-9.32-5.09-13.97-.39-4.27.23-7.33,1.84-9.09.84-.92,1.93-1.48,3.23-1.66,0-5.62,1.49-31.25,29.29-35.77,1.5-.24,3-.37,4.48-.37,1.14,0,2.29.07,3.4.22,26.16,3.43,27.83,27.35,27.9,32.21l3.12.91.07.03c.23.11,2.29,1.09,2.37,2.88.05,1.21-.8,2.31-2.53,3.27l-.08.05-.09.03c-.48.16-.58.92-.58.93,0,.45-.14,4.95-1.65,7.12v.27c-.02,9.21-1.08,25.53-7.73,33.34,1.08,1.47,1.7,3.19,1.94,3.96,2.15,1.41,14.27,9.3,19.73,11.76,1.18.53,2.29,1.18,3.31,1.93,1.91,1.4,4.3,2.85,6.61,4.25,3.81,2.31,6.18,3.79,6.97,4.99.37.57.87,1.34-5.23,12.69l-.17.32-23.5,10.67-20.37,10.19-35.31.65-26-15.86h.02Z"/>
    <path class="st3" d="M70.14,2.15c1.09,0,2.18.07,3.27.21,28.35,3.71,26.95,31.95,26.95,31.95l3.83,1.12s4.06,1.83-.24,4.22c-1.17.4-1.3,1.83-1.3,1.83,0,0-.11,5.1-1.65,6.85-.05,1.57.53,25.03-8.08,33.95,1.7,1.81,2.44,4.68,2.44,4.68,0,0,14.09,9.3,20.2,12.06,1.1.5,2.15,1.1,3.12,1.82,4.63,3.39,12.12,7.14,13.31,8.97.53.81-5.28,11.6-5.28,11.6l-23.17,10.52-20.19,10.1-34.75.64-25.61-15.62-15.04-15.53-2.64-7.32-.08-.37s11.04-10.13,29.05-18.26c-.08-2.71,3.43-8.05,3.51-8.29s.88-1.99,1.59-2.87c.24-1.2,1.83-3.43,4.38-3.59.72-2.15-.24-6.14-.88-6.62-.64-.48-2.71-.4-5.66-2.95-2.23-2.79-4.46-9.01-4.86-13.39-.4-4.35.07-9.65,4.99-9.65h.11c-.31-4.42.48-31.19,28.36-35.72,1.43-.23,2.87-.35,4.31-.35M70.14,0C68.61,0,67.04.13,65.49.38c-12.34,2-21.46,8.61-26.35,19.11-3.22,6.9-3.78,13.6-3.84,16.85-1.15.32-2.15.93-2.95,1.8-1.85,2.02-2.54,5.27-2.12,9.92.45,4.9,2.83,11.43,5.32,14.54l.12.15.15.13c2.43,2.11,4.45,2.7,5.54,3.03,0,0,.02,0,.04.01.24.7.49,2.02.48,3.1-2.35.81-3.91,2.81-4.45,4.41-.7.98-1.34,2.33-1.59,2.94-.04.07-.1.17-.17.29-1.37,2.31-2.91,5.11-3.38,7.46-17.45,8.08-28.05,17.71-28.5,18.12l-.91.83.26,1.2.08.37.03.14.05.14,2.64,7.32.16.43.32.33,15.04,15.53.19.2.23.14,25.61,15.62.53.33h.63l34.75-.65h.49l.44-.23,20.16-10.08,23.13-10.5.66-.3.34-.64c6.41-11.92,5.9-12.7,5.19-13.79-.91-1.4-3.25-2.86-7.31-5.32-2.29-1.39-4.66-2.83-6.53-4.2-1.08-.79-2.26-1.48-3.51-2.04-5.16-2.33-16.45-9.63-19.26-11.47-.27-.79-.75-2.02-1.51-3.21,6.07-7.81,7.43-22.26,7.46-33.35,1.37-2.26,1.61-5.96,1.65-7.34,0-.02.01-.04.02-.06h.01l.17-.1c2.11-1.17,3.15-2.61,3.08-4.25-.1-2.39-2.52-3.6-3-3.81l-.14-.06-.14-.04-2.28-.67c-.09-2.67-.59-8.1-3.01-13.81-3.13-7.38-10.16-16.61-25.81-18.66-1.16-.15-2.35-.23-3.55-.23h0Z"/>
  </g>
  <g>
    <path class="st9" d="M22.82,128.09l-15.29-15.79-2.75-7.61-.22-1.05.45-.42c.11-.1,11.12-10.11,28.74-18.17.29-2.29,2.01-5.41,3.34-7.65.1-.17.17-.29.21-.36.18-.47.88-1.96,1.59-2.92.44-1.55,2.11-3.56,4.5-4.07.25-1.71-.34-4.21-.7-4.81-.11-.04-.34-.11-.53-.17-1.08-.32-2.88-.86-5.14-2.81l-.07-.06-.06-.08c-2.34-2.92-4.67-9.32-5.09-13.97-.39-4.27.23-7.33,1.84-9.09.84-.92,1.93-1.48,3.23-1.66,0-5.62,1.49-31.25,29.29-35.77,1.47-.24,2.97-.36,4.45-.36,1.26,0,2.54.09,3.78.26,25.83,3.59,27.48,27.33,27.54,32.16l3.12.91.07.03c.23.11,2.29,1.09,2.37,2.88.05,1.21-.8,2.31-2.53,3.27l-.08.05-.09.03c-.48.16-.58.92-.58.93,0,.45-.14,4.95-1.65,7.12v.28c-.03,9.21-1.08,25.52-7.73,33.34,1.08,1.46,1.69,3.16,1.94,3.95,2.07,1.28,12.79,7.88,18.68,11.13.31.17.8.43,1.37.73,1.39.73,3.12,1.65,4.01,2.22.82.53,1.71,1.09,2.61,1.67,5.78,3.67,9.64,6.19,10.68,7.77.37.57.89,1.36-5.38,12.28l-.18.31-24.1,10.53-20.36,10.18-35.31.65-26-15.86h.03Z"/>
    <path class="st3" d="M70.62,2.37c1.22,0,2.43.08,3.64.25,28,3.9,26.61,31.9,26.61,31.9l3.83,1.12s4.06,1.83-.24,4.22c-1.17.4-1.3,1.83-1.3,1.83,0,0-.11,5.1-1.65,6.85-.05,1.57.53,25.03-8.08,33.95,1.7,1.81,2.44,4.68,2.44,4.68,0,0,12.47,7.73,19.08,11.37,1.07.59,4.09,2.12,5.32,2.91,4.82,3.11,11.78,7.3,12.97,9.12.53.81-5.42,11.16-5.42,11.16l-23.77,10.39-20.19,10.1-34.75.64-25.61-15.62-15.04-15.53-2.64-7.32-.08-.37s11.04-10.13,29.05-18.26c-.08-2.71,3.43-8.05,3.51-8.29.08-.24.88-1.99,1.59-2.87.24-1.2,1.83-3.43,4.38-3.59.72-2.15-.24-6.14-.88-6.62-.64-.48-2.71-.4-5.66-2.95-2.23-2.79-4.46-9.01-4.86-13.39-.4-4.35.07-9.65,4.99-9.65h.11c-.31-4.42.48-31.19,28.36-35.71,1.42-.23,2.85-.35,4.28-.35M70.62.22c-1.54,0-3.1.13-4.62.37-12.34,2-21.46,8.61-26.35,19.11-3.22,6.9-3.78,13.6-3.84,16.85-1.15.32-2.15.93-2.95,1.8-1.85,2.02-2.54,5.27-2.12,9.92.45,4.9,2.83,11.43,5.32,14.54l.12.15.15.13c2.43,2.11,4.45,2.7,5.54,3.03,0,0,.02,0,.04.01.24.7.49,2.02.48,3.1-2.35.81-3.91,2.81-4.45,4.41-.7.98-1.34,2.33-1.59,2.94-.04.07-.1.17-.17.29-1.37,2.31-2.91,5.11-3.38,7.46-17.45,8.08-28.05,17.71-28.5,18.12l-.91.83.26,1.2.08.37.03.14.05.14,2.64,7.32.16.43.32.33,15.04,15.53.19.2.23.14,25.61,15.62.53.33h.63l34.75-.65h.49l.44-.23,20.14-10.07,23.72-10.37.65-.28.35-.62c6.6-11.5,6.07-12.3,5.35-13.41-1.16-1.77-4.93-4.24-11.01-8.1-.9-.57-1.78-1.13-2.6-1.66-.94-.6-2.7-1.53-4.11-2.28-.55-.29-1.03-.54-1.34-.71-5.6-3.09-15.61-9.23-18.3-10.89-.27-.79-.75-2-1.5-3.18,6.07-7.81,7.43-22.26,7.46-33.35,1.37-2.26,1.61-5.96,1.65-7.34,0-.02.01-.04.02-.06h.01l.17-.1c2.11-1.17,3.15-2.61,3.08-4.25-.1-2.39-2.52-3.6-3-3.81l-.14-.06-.14-.04-2.28-.67c-.09-2.66-.58-8.03-2.97-13.71-3.09-7.35-10.03-16.56-25.49-18.71-1.3-.18-2.62-.27-3.93-.27h-.01Z"/>
  </g>
  <path class="st2" d="M35.03,90.22c-.36-.85-1.39-1.19-2.19-.74-2.63,1.5-7.91,4.48-9.09,4.96-1.42.57-13.74,7.99-16.73,10.53-.43.36-.62.93-.51,1.47.16.83.34,1.55.48,2.05.13.47.31.92.53,1.35l1.3,2.47.7,1.48,2.18,4.48c.66,1.65,1.84,3.02,3.15,4.21l20.46,18.63c3.04,2.77,6.7,4.76,10.67,5.82l13.29,3.55c.61.16,1.24.28,1.87.36l9.6,1.15c.89.11,1.68-.56,1.74-1.45l2.2-36.17c0-.11.02-.22.05-.32h0c.21-.74-.16-1.52-.86-1.83-2.76-1.23-9.55-4.06-13.53-4.07-3.9-.2-8.13.8-11,2.47-2.95,1.91-3.91,1.91-5.02.16-1.06-1.45-7.21-15.72-9.28-20.56h0Z"/>
  <path class="st9" d="M70.75,18.78c37.03,0,67.16,30.13,67.16,67.17s-30.13,67.17-67.16,67.17S3.59,122.98,3.59,85.94,33.72,18.78,70.75,18.78M70.75,15.19C31.68,15.19,0,46.87,0,85.94s31.68,70.75,70.75,70.75,70.75-31.68,70.75-70.75S109.83,15.19,70.75,15.19h0Z"/>
  <path class="st0" d="M40.52,36.55s-2.32-25.64,24.95-31.49c2.89-.62,5.87-.69,8.78-.22,14.17,2.3,22.67,11.6,23.97,28.36,1.43,18.49.96,17.06.96,17.06l-.56,7.49c-.69,1.25,2.02,14.01-11.96,27.58-7.59,5.11-19.78,3.89-33.08-8.45-8.69-7.65-8.29-18.57-8.29-18.57l-1.25,2.5c-.17.35-.55.54-.94.48-.97-.16-2.84-.75-4.51-2.98-2.39-3.19-4.78-12.59-3.75-15.54,1-3.38,3.99-3.21,6.77-.06.25.28.67.37.98.17.54-.35-.08-1.34-2.1-6.33h.03Z"/>
  <path class="st2" d="M96.98,91.51s8.93,4.22,10.12,4.54,19.92,10.02,25.42,16.43c.33.38-3.85,8.16-4.28,8.42-2.65,1.57-6.94,5.72-13.34,14.86-3.1,4.42-9.59,7.8-9.59,7.8l-24.95,7.53-.04-38.54,9.96-5.5,9.48,2.55,1.59-.48-4.38-17.61h0Z"/>
  <path class="st2" d="M42.43,76s-2.55,3.35-3.11,4.86c-.79,1.82-1.93,6.38-.48,10.6.96,4.06,7.89,17.3,7.89,17.3l10.28-7.25,2.95-1.2,3.35,1.28,10.12,5.34s-27.66-18.81-31.01-30.93h.01Z"/>
  <path class="st2" d="M92.41,84.61s-4.22,17.77-12.51,24.71c3.51-.96,12.19-11.24,12.19-11.24,0,0,5.42,6.22,7.25,7.89-.4-3.11-6.93-21.36-6.93-21.36Z"/>
  <path class="st10" d="M84.81,88.82c-5.94,2.37-20.56,5.34-38.42-16.62v7.01s9.35,12.01,17.22,17.85c.4.24,1.01.53,1.19.71,12.41,1.1,20.02-8.96,20.02-8.96h-.01Z"/>
  <path class="st7" d="M64.57,97.62c7.24,4.37,12.24,8.25,12.34,11.47.85-2.55,5.95-9.14,5.95-9.14,0,0,3.93-6.59,4.25-12.33-.41.19-1.33.8-2.63,1.32,0,0-5.01,8.42-19.91,8.67h0Z"/>
  <path class="st10" d="M36.45,40.86s-.23.71-.23,1.27c.56-.48,3.75.16,5.34,2.87,1.43.88,1.28-1.75,1.28-1.75l-1-2.91,11.84-1.71,1.28,3.75.96,4.54,1.75,2.15,2.23,2.07,3.19.56,4.86.08,4.78-1.59,3.87-8.69s1,8.77,1.87,10.76c.88,1.99,4.46,3.03,6.22,1.28.64,1.43-.64,3.03-.64,3.03l-1.99,1.35-.64.8-.56.4-7.17.48-2.55-1.59-1.43-.16-3.76,1.37c-.1.04-.18-.09-.11-.17l5.63-6.39s-16.09,5.52-18.49-8.85c-.06-.35-.29-.65-.63-.78-2.91-1.07-7.83-1.21-7.83-1.21l1.08,16.14-1.6,2.99c-.19.31-.47.46-.99.33,0,0-.75-.13-1.51-.51s-1.69-.96-2.26-1.7c0,0-.72-.79-.97-1.26-.46-.84-.81-1.44-1.09-2.11-.39-.76-1.84-5.37-2.14-7.06-.02-.12-.05-.24-.08-.37-.17-.64-.36-1.73-.44-2.59-.04-.39-.03-.78.02-1.16l.14-1.09c.19-1.33,1.06-2.58,1.9-2.91-.06.26-.11.37-.11.37l-.02-.03Z"/>
  <path class="st1" d="M46.17,42.21c-.81-.11-1.51.54-1.47,1.35.24,4.45,1.06,18.22,1.95,20.08,0,0,1.97,6.54,3.72,8.24,1.71,1.51,8.14,9.91,11.46,11.62.27.14.52.29.78.44,3.91,2.28,16.55,8.69,25.98.32.05-.05.1-.1.14-.15,9.13-10.87,9.68-20.27,9.88-26.37-.7,1.06-.64,2.88-3.08,7.26-.53.94-1.93.87-2.33-.13-.89-2.25-3.11-4.43-7.57-5.41-.06,0-.12-.02-.18-.03-6.3-.59-13.18-.39-13.93-.37-.05,0-.09,0-.14,0-.81.12-8.2,1.34-10.14,6.38-.32.82-1.37,1.07-2.04.5-1.04-.9-2.26-1.57-2.65-1.78-.09-.05-.17-.1-.25-.17-.95-.83-7.23-6.46-7.43-9.35s-.85-3.38-1.14-11.14c-.02-.6-.46-1.12-1.05-1.23-.19-.04-.36-.06-.52-.09v.02Z"/>
  <path class="st6" d="M64.63,70.98s-3.43.84-2.63,7.13c1.95,6.1,8.57,9.29,11.52,9.56s9.58,1.39,15.08-4.23,1.86-13.07,1.86-13.07l-2.71.64-8.13,1.71-7.85-.4-7.13-1.35h-.01Z"/>
  <path class="st5" d="M74.02,75.23s3.4-2.44,9.46-.58c.39.12.7.24.95.35.79.36,1.72.26,2.4-.28,1.62-1.26,4-3.63,3.82-6.55-1.43-3.29-8.77-1.61-8.77-1.61l-15.41-.15-1.22.74s-2.71,2.98,1.28,6.11,3.99,2.55,3.99,2.55c0,0,1.59.8,3.51-.58h0Z"/>
  <path class="st9" d="M65.07,67.52s-.53-3.04,4.52-2.89c.26,0,.51,0,.76-.04,1.03-.14,1.8-.14,2.31-.12.54.03,1.08-.03,1.6-.15,1.04-.25,2.92-.51,4.92.12.73.3,1.16.14,1.38-.02.29-.21.62-.34.97-.41.8-.15,2.23-.25,4.27.23,3.39.8,4.26,1.24,4.46,3.27-.06-.07-.13-.13-.19-.19-.59-.56-1.38-.85-2.19-.84l-5.43.06c-.33,0-.66.05-.98.15-.83.26-2.73.73-4.14.09-.51-.23-1.05-.38-1.61-.38-2.28,0-6.9-.04-7.82-.05-.09,0-.17,0-.25-.01-.42-.04-2.12-.12-2.58,1.17h0Z"/>
  <path class="st9" d="M72.48,69.55s7.09,1.67,12.83.16c-.48,1.75-8.29,4.22-12.83-.16Z"/>
  <path class="st9" d="M36.29,46.4c-.05.1-.2.08-.21-.03-.19-1.26-.56-5.29,2.69-3.12,3.83,2.55,3.27,5.18,3.03,7.33s.8,5.82.8,5.82c0,0-3.13.67-4.2-5.4-.08-.47-.06-.95.1-1.39.31-.88.73-1.22,1.08-1.33.31-.1.49-.42.37-.73-.57-1.48-2.03-4.43-3.66-1.14h0Z"/>
  <path class="st10" d="M70.84,32.56l3.71,1.24.52.08.36-.44.88-1.83s.2,2.63,1.08,3.15c1.16.04,2.07.16,2.31-.48s.64-3.23.64-3.23l2.03,3.67.04.68-7.09.24-4.34-2.87-.12-.2h-.02Z"/>
  <path class="st9" d="M39.4,36.79l15.11-2.28c.13-.02.25-.05.37-.09l.51-.16c.21-.06.33-.07.55-.1.34-.03,1.06-.17,1.89-1.06.44-.47.99-.82,1.62-.97,3.79-.9,13.5-.54,15.89,3.05,3.03.16,7.01.08,7.01.08,0,0,6.22-6.38,15.54-2.07,5.66,1.51,6.38,1.75,6.38,1.75,0,0,5.18,1.35-.88,5.18-.08,2.71-1.99,7.97-1.99,7.97,0,0-4.54,7.73-15.38,3.03.88,1.04,1.12,3.51,1.12,3.51,0,0,.24,3.67-7.01,3.67.52-1.39,2.55-1.55,3.55-2.91.84-1.39,1.16-1.47.88-2.75s-3.63-8.81-4.06-12.23c-1-1.08-3.55-.6-3.91,1.08,0,1.71-.64,9.45-7.93,11.12-6.78.59-10.22.12-13.33-5.63-.46-.85-.77-1.77-.91-2.73-.45-3.08-.26-4.04-.26-4.04,0,0,.32-1.32-2.23-1.12-2.43.52-10.08,1.24-10.08,1.24,0,0,.96,1.47,1,2.91-.6-.56-3.59-3.91-3.59-3.91l.16-2.55h-.02Z"/>
  <path class="st2" d="M74.87,36.99s-5.26-5.7-17.26-1.79c-4.22.76-17.97,2.45-17.97,2.45,0,0,.14,1.12.9,1.92,1.24.16,9.36-.81,12.71-1.15.82-.08,1.55.52,1.62,1.34.24,2.66,1.24,8.18,5.45,10.82,5.98,1.79,10.76-.12,12.99-3.19s2.35-8.01,2.35-8.01c0,0,.36-1.63,5.62-.64,1.55.52,1.24,2.87,1.24,2.87,0,0,2.35,9.09,7.13,9.56s10.04-1.24,10.92-5.62c.88-4.38.72-4.9,1-5.62s.44-1.39,1.71-1.75,2.07-1.55-.08-1.83c-2.11-.76-4.9-1.43-7.61-2.27-3.19-.68-8.33-.52-12.31,3.03-3.39,0-3.43-.12-8.41-.12Z"/>
  <path class="st9" d="M59.78,36.08c-1.25.71-2.6,2.04-3.03,4.51-.43,4.94,2.44,9.09,5.74,9.94,3.3.85,8.34.21,10.47-3.77,2.07-3.89,2.07-9.32-3-10.94-.27-.09-.55-.15-.83-.21-2.48-.51-2.74-.44-6.25-.35-1.08.03-2.15.29-3.09.82h0Z"/>
  <path class="st9" d="M90.38,35.22c-.19,0-.54,0-.99.09-3.65.61-6.01,4.21-5.26,7.83.68,3.27,2.65,6.78,5.99,7.28,5.05.48,6,.05,8.82-3.35s1.65-11.11-2.23-11.58c-2.73-.4-5.18-.32-5.93-.28h-.41.01Z"/>
  <path class="st10" d="M55.97,8.37l-.23,1.32s3.27-1.99,6.14-2.47c-2.15,1.35-9.56,9.25-7.17,27.26-4.42.67-14.19,2.16-14.19,2.16,0,0-2.15-18.9,15.45-28.27Z"/>
  <path class="st10" d="M85.85,56.93s4.32,1.4,5.17,2.2c-.21-1.86-1.65-4.89-2.39-5.63,1.43.32,8.88.65,9.68-2.43-.69.37-5.08,3.27-12.28.07.53,1.57,2.15,4.06-.18,5.8h0Z"/>
  <g>
    <path class="st9" d="M124.79,140.07c-2.97,0-5.29-1.75-6.37-4.8-.4-1.15-.54-2.24-.39-3.25.77-5.37,2.59-7.9,3.33-8.74,2.31-2.61,5.02-3.16,6.89-3.16,1.63,0,2.79.42,2.84.44l.1.04c1.76.85,3.02,2.48,3.46,4.48.75,3.42,0,9.74-4.07,13.1l-.06.05-.06.04c-1.97,1.21-3.88,1.82-5.66,1.82h0v-.02Z"/>
    <path class="st9" d="M128.25,121.17c1.46,0,2.48.37,2.48.37,1.5.72,2.53,2.13,2.89,3.75.74,3.34-.18,9.14-3.71,12.06-1.83,1.12-3.57,1.66-5.11,1.66-2.47,0-4.43-1.4-5.38-4.1-.31-.88-.47-1.83-.34-2.75.77-5.34,2.59-7.65,3.07-8.19,2.02-2.28,4.37-2.8,6.1-2.8M128.25,119.06c-2.08,0-5.11.61-7.68,3.51-.81.91-2.77,3.63-3.58,9.29-.17,1.18-.02,2.45.44,3.76,1.24,3.5,3.92,5.5,7.37,5.5,1.98,0,4.07-.66,6.21-1.97l.13-.08.12-.1c4.41-3.64,5.24-10.46,4.43-14.14-.51-2.31-1.98-4.21-4.03-5.2l-.09-.05-.1-.04c-.14-.05-1.42-.5-3.2-.5h0l-.02.02Z"/>
    <path class="st3" d="M128.25,121.17c1.46,0,2.48.37,2.48.37,1.5.72,2.53,2.13,2.89,3.75.74,3.34-.18,9.14-3.71,12.06-1.83,1.12-3.57,1.66-5.11,1.66-2.47,0-4.43-1.4-5.38-4.1-.31-.88-.47-1.83-.34-2.75.77-5.34,2.59-7.65,3.07-8.19,2.02-2.28,4.37-2.8,6.1-2.8M128.25,120.03c-1.88,0-4.62.55-6.95,3.19-.75.84-2.57,3.39-3.35,8.78-.15,1.03-.02,2.13.39,3.29,1.09,3.09,3.44,4.85,6.45,4.85,1.8,0,3.72-.62,5.7-1.83l.07-.04.06-.05c4.09-3.38,4.86-9.74,4.1-13.18-.45-2.02-1.72-3.67-3.51-4.53l-.05-.02-.05-.02c-.12-.05-1.25-.44-2.87-.44h0Z"/>
  </g>
  <path class="st4" d="M126,124.72c-.71,1.15-1.95,3.82-1.81,9.14,0,.35.07.71.2,1.04.48,1.26,1.3,1.19,2.01.69s1.19-1.24,1.42-2.07c.47-1.71,1.35-5.31,1.15-7.75-.4-1.7-1-2.02-1.67-1.93-.54.07-1.02.41-1.3.87h0Z"/>
  <g>
    <path class="st9" d="M100.56,147.09c-.34,0-.67-.14-.9-.38-.24-.24-.37-.57-.36-.91l.03-1.13c.02-.67.48-1.25,1.14-1.41.35-.08.48-.27.54-.38.28-1.78,1.9-13.36,2.09-14.7,0-.06.02-.12.03-.17-.03-.04-.09-.11-.2-.17-.46-.26-.79-.68-.95-1.18-.13-.42-.18-.84-.15-1.24.05-.62.47-1.13,1.07-1.31l5.36-1.61c.17-.05.35-.08.53-.08.63,0,1.2.31,1.53.82,1.11-.8,2.61-1.55,4.12-1.55s3.38.66,4.47,3.79l.03.08.02.08c.6,3.42-.11,8.72-3.08,12.26-1.75,2.08-4.01,3.18-6.56,3.18-.27,0-.54,0-.82-.04-.03.36-.07.79-.09,1.27l.15.03c.73.14,1.21.82,1.1,1.55l-.17,1.12c-.11.71-.68,1.26-1.4,1.33l-7.46.76h-.08.01Z"/>
    <path class="st9" d="M114.44,122.73c1.36,0,2.67.77,3.48,3.08.97,5.5-1.84,14.2-8.6,14.2-.48,0-.98-.04-1.5-.14h-.04c-.1,0-.19.07-.2.16-.13.69-.2,1.95-.23,2.64-.01.29.19.54.47.59l.56.1c.16.03.27.19.25.35l-.17,1.12c-.04.24-.23.42-.46.44l-7.4.75h-.02c-.11,0-.21-.09-.2-.21l.03-1.13c0-.2.14-.37.33-.41.39-.1,1.04-.37,1.31-1.13.21-1.32,1.91-13.39,2.11-14.84.01-.08.03-.15.05-.22.07-.22-.07-.8-.74-1.18-.22-.13-.39-.34-.47-.59-.11-.35-.12-.63-.1-.83.02-.18.14-.34.32-.39l5.36-1.61c.08-.02.15-.03.23-.03.29,0,.56.16.7.42.15.3.24.75.08,1.44.63-.8,2.8-2.59,4.87-2.59M114.44,120.62c-1.43,0-2.83.56-3.98,1.25-.48-.34-1.06-.53-1.67-.53-.28,0-.57.04-.84.12l-5.36,1.61c-1.02.31-1.73,1.18-1.82,2.24-.05.54.02,1.09.2,1.64.19.6.54,1.12,1.02,1.5-.33,2.35-1.6,11.34-1.96,13.83-1.02.34-1.72,1.28-1.75,2.35l-.03,1.13c-.02.62.22,1.23.66,1.68.43.44,1.04.7,1.66.7h.23l7.4-.76c1.2-.12,2.16-1.04,2.33-2.23l.17-1.12c.11-.73-.12-1.43-.56-1.94,2.53-.21,4.78-1.42,6.55-3.52,2.73-3.26,4.1-8.65,3.31-13.12l-.03-.17-.06-.16c-1.37-3.91-4.01-4.5-5.47-4.5h0Z"/>
    <path class="st3" d="M114.44,122.73c1.36,0,2.67.77,3.48,3.08.97,5.5-1.84,14.2-8.6,14.2-.48,0-.98-.04-1.5-.14h-.04c-.1,0-.19.07-.2.16-.13.69-.2,1.95-.23,2.64-.01.29.19.54.47.59l.56.1c.16.03.27.19.25.35l-.17,1.12c-.04.24-.23.42-.46.44l-7.4.75h-.02c-.11,0-.21-.09-.2-.21l.03-1.13c0-.2.14-.37.33-.41.39-.1,1.04-.37,1.31-1.13.21-1.32,1.91-13.39,2.11-14.84.01-.08.03-.15.05-.22.07-.22-.07-.8-.74-1.18-.22-.13-.39-.34-.47-.59-.11-.35-.12-.63-.1-.83.02-.18.14-.34.32-.39l5.36-1.61c.08-.02.15-.03.23-.03.29,0,.56.16.7.42.15.3.24.75.08,1.44.63-.8,2.8-2.59,4.87-2.59M114.44,121.6c-1.5,0-2.98.73-4.1,1.52-.35-.49-.93-.79-1.55-.79-.19,0-.38.03-.56.08l-5.36,1.61c-.63.19-1.07.73-1.13,1.38-.03.41.02.84.15,1.27.16.52.52.96.99,1.23.08.04.13.09.16.12,0,.05-.02.09-.02.14-.19,1.34-1.81,12.88-2.09,14.69-.05.1-.17.26-.48.33-.69.17-1.18.78-1.2,1.49l-.03,1.13c0,.36.13.71.38.97s.6.41.96.41h.14l7.4-.76c.75-.08,1.36-.65,1.47-1.4l.17-1.12c.12-.77-.39-1.49-1.16-1.63l-.08-.02c.02-.42.05-.8.08-1.12.25.02.5.03.74.03,2.57,0,4.86-1.11,6.62-3.21,2.99-3.56,3.7-8.88,3.1-12.32l-.02-.09-.03-.09c-1.11-3.18-3.09-3.85-4.55-3.85h0Z"/>
  </g>
  <path class="st4" d="M108.96,129.14l-.92,6.75s-.57,2.13,1.57,1.36c2.22-1.18,3.56-5.81,3.27-9.53-.18-1.7-2.12-1.95-3.32-.19-.33.48-.52,1.04-.6,1.61Z"/>
  <g>
    <path class="st9" d="M83.91,148.82c-.34,0-.67-.14-.9-.38-.24-.24-.37-.57-.36-.91l.03-1.13c.02-.67.48-1.25,1.14-1.41.35-.08.48-.27.54-.39.25-1.63,1.65-11.59,2.09-14.67.01-.08.02-.14.04-.21-.03-.04-.09-.11-.2-.17-.46-.26-.79-.68-.95-1.18-.13-.42-.18-.84-.15-1.24.05-.62.47-1.13,1.07-1.31l5.36-1.61c.17-.05.35-.08.53-.08.63,0,1.2.31,1.53.82,1.11-.8,2.61-1.55,4.12-1.55s3.38.66,4.47,3.79l.03.08.02.08c.6,3.42-.11,8.72-3.08,12.26-1.75,2.08-4.01,3.18-6.56,3.18-.27,0-.54,0-.82-.04-.03.36-.07.79-.09,1.27l.15.03c.73.14,1.21.82,1.1,1.54l-.17,1.12c-.11.71-.68,1.26-1.4,1.33l-7.46.76h-.07v.02Z"/>
    <path class="st9" d="M97.78,124.46c1.36,0,2.67.77,3.48,3.08.97,5.5-1.84,14.2-8.6,14.2-.48,0-.98-.04-1.5-.14h-.04c-.1,0-.19.07-.2.16-.13.69-.2,1.95-.23,2.64-.01.29.19.54.47.59l.56.1c.16.03.27.19.25.35l-.17,1.12c-.04.24-.23.42-.46.44l-7.4.75h-.02c-.11,0-.21-.09-.2-.21l.03-1.13c0-.2.14-.37.33-.41.39-.1,1.04-.37,1.31-1.13.21-1.32,1.91-13.39,2.11-14.84.01-.08.03-.15.05-.22.07-.22-.07-.8-.74-1.18-.22-.13-.39-.34-.47-.59-.11-.35-.12-.63-.1-.83.02-.18.14-.34.32-.39l5.36-1.61c.08-.02.15-.03.23-.03.29,0,.56.16.7.42.15.3.24.75.08,1.44.63-.8,2.8-2.59,4.87-2.59M97.78,122.35c-1.43,0-2.83.56-3.98,1.25-.48-.34-1.06-.53-1.67-.53-.28,0-.56.04-.84.12l-5.36,1.61c-1.02.31-1.73,1.18-1.82,2.24-.05.54.02,1.09.2,1.64.19.6.54,1.12,1.02,1.5-.33,2.35-1.6,11.34-1.96,13.83-1.02.34-1.72,1.28-1.75,2.35l-.03,1.13c-.02.62.22,1.23.66,1.68.43.44,1.04.7,1.66.7h.23l7.4-.76c1.2-.12,2.16-1.04,2.33-2.23l.17-1.12c.11-.73-.12-1.43-.56-1.94,2.53-.21,4.78-1.42,6.55-3.52,2.73-3.26,4.1-8.65,3.31-13.12l-.03-.17-.06-.16c-1.37-3.91-4.01-4.5-5.47-4.5h0Z"/>
    <path class="st3" d="M97.78,124.46c1.36,0,2.67.77,3.48,3.08.97,5.5-1.84,14.2-8.6,14.2-.48,0-.98-.04-1.5-.14h-.04c-.1,0-.19.07-.2.16-.13.69-.2,1.95-.23,2.64-.01.29.19.54.47.59l.56.1c.16.03.27.19.25.35l-.17,1.12c-.04.24-.23.42-.46.44l-7.4.75h-.02c-.11,0-.21-.09-.2-.21l.03-1.13c0-.2.14-.37.33-.41.39-.1,1.04-.37,1.31-1.13.21-1.32,1.91-13.39,2.11-14.84.01-.08.03-.15.05-.22.07-.22-.07-.8-.74-1.18-.22-.13-.39-.34-.47-.59-.11-.35-.12-.63-.1-.83.02-.18.14-.34.32-.39l5.36-1.61c.08-.02.15-.03.23-.03.29,0,.56.16.7.42.15.3.24.75.08,1.44.63-.8,2.8-2.59,4.87-2.59M97.78,123.32c-1.5,0-2.98.73-4.1,1.52-.35-.49-.93-.79-1.55-.79-.19,0-.38.03-.56.08l-5.36,1.61c-.63.19-1.07.73-1.13,1.38-.03.41.02.84.15,1.27.16.52.52.96.99,1.23.08.04.13.09.16.12,0,.05-.02.09-.02.14-.19,1.34-1.81,12.88-2.09,14.69-.05.1-.17.26-.48.33-.69.17-1.18.78-1.2,1.49l-.03,1.13c0,.36.13.71.38.97s.6.41.96.41h.14l7.4-.76c.75-.08,1.36-.65,1.47-1.4l.17-1.12c.12-.77-.39-1.49-1.16-1.63l-.08-.02c.02-.42.05-.8.08-1.12.25.02.5.03.74.03,2.57,0,4.86-1.11,6.62-3.21,2.99-3.56,3.7-8.88,3.1-12.32l-.02-.09-.03-.09c-1.11-3.18-3.09-3.85-4.55-3.85h0Z"/>
  </g>
  <path class="st4" d="M92.4,130.82l-.92,6.75s-.57,2.13,1.57,1.36c2.22-1.18,3.56-5.81,3.27-9.53-.18-1.7-2.12-1.95-3.32-.19-.33.48-.52,1.04-.6,1.61Z"/>
  <g>
    <path class="st9" d="M76.91,144.62c-3.54,0-5.76-1.97-6.25-5.56-.27-5.25,1.61-9.52,5.27-12.1,1.02-.72,2.21-1.21,3.45-1.4.63-.1,1.23-.15,1.78-.15,2.65,0,3.92,1.16,4.52,2.14.47.77.66,1.61.58,2.64-.07,1.34-.23,3.74-.51,4.44-.3.72-.5,1.14-1.34,1.38-.46.13-.99.23-.99.23l-5.59,1.21c.18.75.51,1.49,1.09,1.49.69,0,1.83-.69,2.92-1.75.28-.27.64-.42,1.02-.42s.75.15,1.03.43c.57.57.96,1.09,1.15,1.55.64,1.57-1.74,3.94-4.31,5.24l-.09.04-.09.03c-1.29.38-2.51.57-3.63.57h-.01Z"/>
    <path class="st9" d="M81.16,126.47c2.09,0,3.12.81,3.62,1.63.37.6.48,1.22.42,2,0,0-.18,3.48-.44,4.12s-.29.66-.64.76c-.43.12-.92.22-.92.22l-6.6,1.42c.31,2.55,1.25,3.36,2.3,3.36,1.41,0,3.03-1.43,3.66-2.05.08-.08.18-.12.28-.12s.21.04.29.12c.3.3.74.78.91,1.2.27.67-1.3,2.63-3.81,3.9-.92.27-2.12.53-3.33.53-2.33,0-4.7-.96-5.2-4.64-.26-5.23,1.81-8.96,4.83-11.1.89-.63,1.92-1.05,3-1.22.6-.09,1.13-.14,1.62-.14M81.16,124.36c-.61,0-1.26.05-1.94.16-1.39.22-2.73.77-3.89,1.58-3.97,2.8-6,7.39-5.72,12.92v.09l.02.09c.56,4.11,3.21,6.47,7.29,6.47,1.21,0,2.53-.21,3.92-.61l.19-.05.17-.09c2.5-1.26,5.84-4.06,4.81-6.58-.19-.46-.5-.94-.95-1.44.98-.39,1.34-1.08,1.66-1.87.1-.24.4-.97.59-4.79.09-1.23-.15-2.29-.73-3.24-.74-1.2-2.28-2.64-5.42-2.64h0Z"/>
    <path class="st3" d="M81.16,126.47c2.09,0,3.12.81,3.62,1.63.37.6.48,1.22.42,2,0,0-.18,3.48-.44,4.12s-.29.66-.64.76c-.43.12-.92.22-.92.22l-6.6,1.42c.31,2.55,1.25,3.36,2.3,3.36,1.41,0,3.03-1.43,3.66-2.05.08-.08.18-.12.28-.12s.21.04.29.12c.3.3.74.78.91,1.2.27.67-1.3,2.63-3.81,3.9-.92.27-2.12.53-3.33.53-2.33,0-4.7-.96-5.2-4.64-.26-5.23,1.81-8.96,4.83-11.1.89-.63,1.92-1.05,3-1.22.6-.09,1.13-.14,1.62-.14M81.16,125.33c-.56,0-1.16.05-1.79.15-1.24.2-2.45.69-3.48,1.42-3.68,2.6-5.57,6.89-5.31,12.08v.1c.49,3.63,2.74,5.63,6.33,5.63,1.12,0,2.35-.19,3.65-.57l.1-.03.09-.05c2.61-1.32,5.01-3.74,4.35-5.35-.19-.47-.58-1-1.16-1.58-.29-.29-.68-.45-1.09-.45s-.79.16-1.08.44c-1.07,1.05-2.2,1.73-2.86,1.73-.51,0-.81-.65-.99-1.34l5.52-1.19s.52-.1.98-.23c.87-.24,1.1-.7,1.39-1.42.29-.71.45-3.12.52-4.5.08-1.01-.11-1.87-.59-2.65-.61-.99-1.9-2.18-4.59-2.18h.01Z"/>
  </g>
  <path class="st4" d="M77.11,133.87s.23-3.25,1.32-4.2c.95-.83,1.89-.8,2.2-.23.07.13.1.36.1.51,0,.77-.03,1.18-.03,1.18,0,0,.07,1.24-1.25,1.9s-2.34.84-2.34.84h0Z"/>
  <g>
    <path class="st9" d="M53.18,147.12c-1,0-1.82-.75-1.93-1.76-.05-.53-.2-1.93,1.42-2.74.82-.41,1.02-.87,1.11-1.22.14-.66,1.12-9.49,1.7-14.9l.02-.15.05-.14s.02-.16,0-.19c0-.02-.08-.08-.27-.14-.95-.29-1.59-1.16-1.59-2.16,0-1.13.79-2.07,1.87-2.27l8.8-1.57s1.15-.24,2.61-.24c4.2,0,6.81,1.96,7.16,5.38v.11c-.02,5.77-3.2,11.94-11.94,12.35-.22,1.12-.43,2.78-.51,3.53.04.23.37.3.65.33.94.09,1.66.89,1.64,1.82-.02,1.12-.82,2.46-2.97,2.86-2.26.41-6.99,1-7.47,1.06h-.05c-.1.02-.2.03-.3.03h0Z"/>
    <path class="st9" d="M66.98,120.7c2.39,0,5.72.68,6.11,4.43-.03,6.05-3.6,11.29-11.74,11.32-.36,1.27-.73,4.54-.73,4.54,0,0-.05,1.25,1.61,1.41.39.04.69.35.68.74-.02.68-.5,1.55-2.11,1.84-2.33.42-7.44,1.06-7.44,1.06h-.05s-.09,0-.13,0c-.45,0-.83-.35-.88-.81-.07-.68,0-1.27.84-1.69,1.03-.51,1.48-1.18,1.66-1.91.18-.73,1.72-15.04,1.72-15.04,0,0,.52-1.29-.94-1.73-.5-.15-.85-.62-.85-1.15v-.03c0-.6.42-1.1,1-1.21,2.5-.45,8.8-1.57,8.8-1.57,0,0,1.06-.23,2.43-.23M66.98,118.6h0c-1.44,0-2.57.21-2.82.26l-8.77,1.57c-1.59.28-2.74,1.66-2.74,3.28,0,1.28.69,2.39,1.77,2.96-.57,5.25-1.49,13.55-1.65,14.52-.03.11-.11.28-.55.5-1.04.52-2.22,1.6-2,3.79.16,1.54,1.44,2.7,2.97,2.7.15,0,.3,0,.45-.03h.07c.71-.1,5.25-.67,7.47-1.08,2.78-.51,3.81-2.4,3.84-3.87.03-1.35-.91-2.52-2.2-2.83.08-.6.17-1.28.27-1.89,7.38-.71,12.07-5.79,12.11-13.33v-.22c-.42-3.96-3.48-6.33-8.22-6.33h0Z"/>
    <path class="st3" d="M66.98,120.7c2.39,0,5.72.68,6.11,4.43-.03,6.05-3.6,11.29-11.74,11.32-.36,1.27-.73,4.54-.73,4.54,0,0-.05,1.25,1.61,1.41.39.04.69.35.68.74-.02.68-.5,1.55-2.11,1.84-2.33.42-7.44,1.06-7.44,1.06h-.05s-.09,0-.13,0c-.45,0-.83-.35-.88-.81-.07-.68,0-1.27.84-1.69,1.03-.51,1.48-1.18,1.66-1.91.18-.73,1.72-15.04,1.72-15.04,0,0,.52-1.29-.94-1.73-.5-.15-.85-.62-.85-1.15v-.03c0-.6.42-1.1,1-1.21,2.5-.45,8.8-1.57,8.8-1.57,0,0,1.06-.23,2.43-.23M66.98,119.57h0c-1.47,0-2.61.24-2.66.25l-8.76,1.57c-1.12.2-1.94,1.18-1.94,2.32,0,1.06.66,1.96,1.65,2.26.18.05.23.11.23.11,0,.01,0,.09-.02.14l-.06.15v.13c-.59,5.4-1.56,14.21-1.71,14.9-.09.34-.28.76-1.07,1.15-1.67.83-1.52,2.33-1.47,2.82.11,1.04.97,1.83,2.01,1.83.1,0,.2,0,.3-.02h.06c.55-.08,5.22-.67,7.46-1.07,2.2-.4,3.01-1.78,3.04-2.93.02-.97-.73-1.81-1.71-1.9-.2-.02-.52-.08-.57-.26.09-.75.29-2.34.5-3.45,8.76-.43,11.94-6.63,11.96-12.42v-.12c-.36-3.46-2.99-5.45-7.24-5.45h0Z"/>
  </g>
  <path class="st4" d="M62.68,125.17l-.94,6.6s-.18,1.72,1.33,1.3c1.51-.42,3.24-1.15,3.87-4.63.48-2.61.05-3.52-.78-4.08-.59-.4-1.33-.55-2.03-.45-.87.12-1.39.44-1.45,1.26Z"/>
  <path class="st9" d="M73.95,50.98s-2.27,1.95-2.67,3.59-.16,2.79,2.55,3.43c-.32-1-3.31-1.24.12-7.01h0Z"/>
  <path class="st9" d="M74.5,56s2.55-1.62,4.38-.13c0,1.04-1.38.74-1.62.61,0,0-1.06-.34-1.91.24-.66.06-.9-.46-.85-.72Z"/>
  <g>
    <path class="st9" d="M44.75,125.27c-1.22,0-2.26-.53-2.85-1.47-.69-1.09-.68-2.52.03-4.04.69-1.48,2.67-3.07,4.64-3.07.88,0,1.67.32,2.27.92.78.78,1.1,1.92.9,3.2-.25,1.62-1.27,3.15-2.55,3.8-.83.43-1.65.65-2.45.65h0Z"/>
    <path class="st9" d="M46.57,117.75c.56,0,1.09.18,1.53.62,1.44,1.44.28,4.47-1.38,5.32-.7.36-1.37.53-1.96.53-1.87,0-2.97-1.66-1.87-4,.57-1.22,2.22-2.47,3.68-2.47M46.57,115.64h0c-2.42,0-4.74,1.87-5.59,3.68-.86,1.83-.85,3.67.03,5.05.79,1.24,2.15,1.95,3.74,1.95.96,0,1.95-.26,2.93-.76,1.56-.8,2.8-2.64,3.1-4.58.25-1.62-.17-3.08-1.2-4.11-.81-.81-1.85-1.23-3.02-1.23h.01Z"/>
    <path class="st3" d="M46.57,117.75c.56,0,1.09.18,1.53.62,1.44,1.44.28,4.47-1.38,5.32-.7.36-1.37.53-1.96.53-1.87,0-2.97-1.66-1.87-4,.57-1.22,2.22-2.47,3.68-2.47M46.57,116.61h0c-2.01,0-4.01,1.62-4.71,3.12-.72,1.54-.73,3.01-.03,4.12.61.95,1.67,1.5,2.92,1.5.81,0,1.64-.22,2.48-.65,1.29-.67,2.33-2.22,2.59-3.86.2-1.31-.13-2.47-.93-3.27-.62-.62-1.43-.95-2.33-.95h.01Z"/>
  </g>
  <g>
    <path class="st9" d="M38.7,149.3c-1.51,0-1.7-1.16-1.72-1.66-.05-1.54.68-2.03,1.37-2.36.19-.09.34-.17.48-.3.53-.5.64-1.88.73-2.99.04-.45.07-.88.13-1.26.08-.56.18-1.12.27-1.68.28-1.68.54-3.28.59-4.9l-1.16-.49-.18-.26c-.42-.63-.29-2.07-.17-2.41.41-1.19,7.76-3.69,7.83-3.71l.23-.07.24.04c1.62.25,1.54,1.69,1.52,2.17-.12,2.22-.52,4.51-.91,6.72-.37,2.14-.76,4.34-.87,6.4v.14c-.06.95.15,1.46.64,1.52l.88.11.04.89v.22c.06.67.18,2.24-1.23,2.69l-.08.03-8.22,1.18h-.42v-.02Z"/>
    <path class="st9" d="M47.18,128.27c.65.1.65.5.62,1.07-.23,4.3-1.55,8.87-1.77,13.13-.08,1.49-.2,2.56,1.57,2.77.03.59.21,1.62-.5,1.85l-8.08,1.16h-.33c-.4,0-.65-.08-.66-.64-.04-1.47.74-1.13,1.52-1.87,1.08-1.03.95-3.4,1.17-4.86.37-2.46.9-4.91.88-7.43l-1.52-.64c-.14-.21-.14-1.23-.05-1.49.13-.37,6.27-2.77,7.15-3.05M47.01,126.12l-.47.15c-.56.18-2.44.9-4.02,1.55-3.6,1.48-4.14,1.82-4.49,2.83-.19.54-.37,2.34.29,3.34l.35.53.58.25.19.08c-.09,1.32-.31,2.66-.54,4.05-.09.56-.19,1.13-.27,1.69-.06.42-.1.86-.14,1.33-.05.65-.16,2-.42,2.32,0,0-.12.06-.2.1-.95.46-2.02,1.26-1.96,3.34.05,1.63,1.14,2.68,2.77,2.68h.52l.12-.02,8.08-1.16.17-.02.16-.05c1.47-.46,2.14-1.73,1.98-3.77v-.19l-.1-1.78-1.51-.18c0-.15,0-.31.02-.45v-.14c.11-2,.48-4.07.86-6.28.39-2.25.8-4.57.92-6.85.14-2.59-1.64-3.15-2.41-3.26l-.49-.07h0v-.02Z"/>
    <path class="st3" d="M47.18,128.27c.65.1.65.5.62,1.07-.23,4.3-1.55,8.87-1.77,13.13-.08,1.49-.2,2.56,1.57,2.77.03.59.21,1.62-.5,1.85l-8.08,1.16h-.33c-.4,0-.65-.08-.66-.64-.04-1.47.74-1.13,1.52-1.87,1.08-1.03.95-3.4,1.17-4.86.37-2.46.9-4.91.88-7.43l-1.52-.64c-.14-.21-.14-1.23-.05-1.49.13-.37,6.27-2.77,7.15-3.05M47.09,127.11l-.25.08c-.48.15-2.27.84-3.95,1.52-3.69,1.51-3.76,1.73-3.94,2.24-.12.36-.26,1.82.18,2.48l.19.28.31.13.82.35c-.05,1.6-.31,3.18-.59,4.84l-.27,1.68c-.06.39-.09.81-.13,1.26-.08,1.04-.2,2.46-.7,2.94-.13.12-.27.19-.46.28-.71.35-1.46.85-1.42,2.44.03,1.09.7,1.74,1.8,1.74h.48l8.08-1.16h.09l.09-.04c1.48-.46,1.35-2.14,1.3-2.77,0-.08,0-.15,0-.22l-.05-.96-.95-.12c-.44-.05-.63-.53-.58-1.44v-.14c.12-2.05.5-4.26.88-6.39.39-2.22.79-4.51.91-6.74.07-1.32-.46-2.08-1.58-2.25l-.26-.04h0Z"/>
  </g>
  <g>
    <path class="st9" d="M14.01,152.17c-.38,0-.76-.08-1.11-.23l-.09-.04c-.25-.14-.69-.49-.81-1.27-.11-.72.08-1.83.59-2.37.25-.26.58-.42.97-.61.32-.15.76-.36.92-.55.58-.67.76-3.4.86-4.86.04-.65.08-1.23.14-1.66.13-1.03.26-2.05.4-3.08.22-1.7.44-3.4.65-5.09.04-.3.11-.65.18-1.01.13-.64.32-1.51.15-1.91h-.02s-.22-.05-.33-.09c-.57-.19-2.09-.69-1.67-2.67.35-1.65,1.84-1.95,2.73-2.12l.27-.06c1.56-.33,6.9-1.43,10.38-1.67.39-.03.77-.04,1.14-.04,4.87,0,8.25,2.28,9.53,6.43,1.87,6.07-1.41,14.74-7.02,18.56-3.3,2.25-5.54,2.56-8.62,2.99-.52.07-1.08.15-1.68.24-.7.11-1.39.22-2.09.33-1.68.27-3.42.55-5.14.76-.11,0-.21.02-.32.02h-.01Z"/>
    <path class="st9" d="M29.36,123.9c13.03,0,10.33,17.33,1.91,23.06-3.63,2.47-5.75,2.43-9.87,3.07-2.39.37-4.79.8-7.19,1.08-.07,0-.13,0-.2,0-.24,0-.47-.05-.69-.14-.54-.3-.26-1.68.03-1.99.27-.29,1.4-.58,1.92-1.18,1.07-1.24,1.03-5.36,1.25-7.08.35-2.74.72-5.46,1.04-8.17.12-1,.66-2.49.26-3.45-.42-1.02-2.34-.36-1.97-2.14.23-1.08,1.27-1.17,2.19-1.37,2.89-.62,7.34-1.45,10.23-1.65.37-.03.73-.04,1.07-.04M29.36,121.79h0c-.4,0-.8.01-1.22.04-3.54.24-8.95,1.35-10.53,1.69l-.26.05c-.92.18-3.07.61-3.56,2.94-.22,1.04-.22,2.86,2.04,3.77-.04.3-.12.67-.17.9-.08.36-.15.74-.2,1.1-.2,1.69-.42,3.39-.65,5.09-.13,1.02-.27,2.04-.4,3.07-.06.48-.1,1.05-.14,1.72-.07,1.07-.24,3.53-.61,4.23-.13.09-.4.22-.58.3-.44.21-.9.43-1.29.84-.76.81-1.01,2.28-.86,3.25.14.9.62,1.62,1.34,2.03l.09.05.09.04c.49.21,1,.32,1.53.32.15,0,.29,0,.44-.03,1.75-.21,3.49-.49,5.18-.76.7-.11,1.39-.23,2.09-.33.6-.09,1.15-.17,1.67-.24,3.23-.45,5.56-.78,9.07-3.17,6.06-4.12,9.46-13.16,7.43-19.74-1.4-4.56-5.24-7.17-10.53-7.17h.03Z"/>
    <path class="st3" d="M29.36,123.9c13.03,0,10.33,17.33,1.91,23.06-3.63,2.47-5.75,2.43-9.87,3.07-2.39.37-4.79.8-7.19,1.08-.07,0-.13,0-.2,0-.24,0-.47-.05-.69-.14-.54-.3-.26-1.68.03-1.99.27-.29,1.4-.58,1.92-1.18,1.07-1.24,1.03-5.36,1.25-7.08.35-2.74.72-5.46,1.04-8.17.12-1,.66-2.49.26-3.45-.42-1.02-2.34-.36-1.97-2.14.23-1.08,1.27-1.17,2.19-1.37,2.89-.62,7.34-1.45,10.23-1.65.37-.03.73-.04,1.07-.04M29.36,122.76h0c-.37,0-.76.01-1.15.04-3.47.24-8.83,1.34-10.39,1.67l-.27.06c-.91.18-2.44.48-2.79,2.19-.43,2.05,1.14,2.57,1.73,2.77.1.03.24.08.33.12.11.41-.06,1.2-.18,1.79-.07.36-.14.69-.18,1.02-.2,1.69-.42,3.39-.65,5.1-.13,1.02-.27,2.04-.4,3.06-.06.45-.09,1.01-.14,1.66-.1,1.46-.28,4.17-.84,4.81-.15.18-.6.39-.9.53-.39.19-.73.35-.99.62-.52.56-.72,1.7-.61,2.44.13.81.59,1.18.85,1.33l.05.03.05.02c.36.16.75.24,1.14.24.11,0,.22,0,.33-.02,1.73-.2,3.46-.48,5.14-.76.7-.11,1.4-.23,2.09-.33.6-.09,1.16-.17,1.68-.24,3.1-.43,5.34-.75,8.65-3.01,5.63-3.83,8.93-12.55,7.05-18.65-1.29-4.18-4.7-6.48-9.6-6.48h0Z"/>
  </g>
  <path class="st3" d="M28.76,129.67c-.76-.49-1.85-.57-2.74-.49-1.51.13-1.51.77-1.76,2.09-.58,3.03-.82,6.59-1.17,9.68-.12,1.03-1.07,3.67.66,3.65,5.49-.04,7.17-6.78,6.78-11.2-.1-1.13-.79-3.1-1.76-3.73h-.01Z"/>
</svg>